<svg width="15" height="20" viewBox="0 0 15 20" fill="none" xmlns="http://www.w3.org/2000/svg">
<path fill-rule="evenodd" clip-rule="evenodd" d="M8.59678 15.4482C8.21953 15.4626 7.72121 15.4539 7.15904 15.3753C5.90508 15.2 4.36424 14.6819 3.11678 13.3229C1.91891 12.018 1.74935 10.269 1.92274 8.75333C2.00843 8.00428 2.17538 7.3397 2.32158 6.86171C2.39445 6.62343 2.4616 6.43339 2.50981 6.30458C2.5339 6.24022 2.55321 6.19129 2.56609 6.15942L2.58034 6.12465L2.58344 6.11728L2.58365 6.11679L2.58378 6.11647L2.58386 6.1163L2.58389 6.11623C2.71461 5.81203 2.57421 5.45938 2.27007 5.32833C1.96576 5.19719 1.61275 5.33758 1.48161 5.6419L2.03263 5.87934C1.48161 5.6419 1.48152 5.64211 1.48143 5.64233L1.48119 5.64287L1.48058 5.6443L1.4788 5.64848L1.47306 5.66213C1.46829 5.67355 1.46167 5.68958 1.45342 5.71001C1.43691 5.75087 1.41386 5.80939 1.38596 5.8839C1.33021 6.03284 1.25494 6.24624 1.17405 6.51074C1.0127 7.03829 0.826651 7.77661 0.730519 8.61694C0.540272 10.28 0.691782 12.4557 2.23276 14.1344C3.72416 15.7591 5.55742 16.363 6.99285 16.5638C7.49492 16.634 7.95208 16.6555 8.33504 16.6538L6.41325 18.5756C6.17894 18.8099 6.17894 19.1898 6.41325 19.4242C6.64757 19.6585 7.02747 19.6585 7.26178 19.4242L10.2618 16.4242C10.4812 16.2047 10.4971 15.8542 10.2985 15.6158L7.79845 12.6158C7.58631 12.3612 7.20797 12.3268 6.95341 12.539C6.69884 12.7511 6.66445 13.1294 6.87659 13.384L8.59678 15.4482Z" fill="#111111" fill-opacity="0.7"/>
<path fill-rule="evenodd" clip-rule="evenodd" d="M6.82803 4.30187C7.20527 4.28756 7.7036 4.29616 8.26577 4.37477C9.51972 4.55012 11.0606 5.0682 12.308 6.42717C13.5059 7.73212 13.6755 9.48106 13.5021 10.9968C13.4164 11.7458 13.2494 12.4104 13.1032 12.8884C13.0304 13.1267 12.9632 13.3167 12.915 13.4455C12.8909 13.5099 12.8716 13.5588 12.8587 13.5907L12.8445 13.6255L12.8414 13.6328L12.8412 13.6333L12.841 13.6336L12.8409 13.6338L12.8409 13.6339C12.7102 13.9381 12.8506 14.2907 13.1547 14.4218C13.459 14.5529 13.8121 14.4125 13.9432 14.1082L13.3922 13.8708C13.9432 14.1082 13.9433 14.108 13.9434 14.1078L13.9436 14.1072L13.9442 14.1058L13.946 14.1016L13.9517 14.088C13.9565 14.0766 13.9631 14.0605 13.9714 14.0401C13.9879 13.9992 14.0109 13.9407 14.0388 13.8662C14.0946 13.7173 14.1699 13.5039 14.2508 13.2394C14.4121 12.7118 14.5982 11.9735 14.6943 11.1332C14.8845 9.47014 14.733 7.29441 13.192 5.61568C11.7006 3.99097 9.86738 3.38706 8.43195 3.18633C7.92988 3.11613 7.47272 3.09456 7.08977 3.09626L9.01155 1.17447C9.24587 0.940161 9.24587 0.560262 9.01155 0.325947C8.77724 0.0916328 8.39734 0.0916328 8.16302 0.325947L5.16302 3.32595C4.94359 3.54538 4.92769 3.89593 5.12635 4.13432L7.62635 7.13432C7.83849 7.38889 8.21683 7.42328 8.4714 7.21114C8.72596 6.99901 8.76036 6.62067 8.54822 6.3661L6.82803 4.30187Z" fill="#111111" fill-opacity="0.7"/>
</svg>
