<svg width="128" height="20" viewBox="0 0 128 20" fill="none" xmlns="http://www.w3.org/2000/svg">
<path fill-rule="evenodd" clip-rule="evenodd" d="M10.4861 1.24742C10.1091 0.917526 9.54611 0.917526 9.16908 1.24742L0.341495 8.97156C0.0279647 9.2459 -0.0826358 9.68588 0.0638966 10.0759C0.210429 10.4659 0.583391 10.7241 0.999999 10.7241H2.2069V18C2.2069 18.5523 2.65461 19 3.2069 19H16.4483C17.0006 19 17.4483 18.5523 17.4483 18V10.7241H18.6552C19.0718 10.7241 19.4447 10.4659 19.5913 10.0759C19.7378 9.68588 19.6272 9.2459 19.3137 8.97156L16.8966 6.85658V2C16.8966 1.44772 16.4488 1 15.8966 1C15.3443 1 14.8966 1.44772 14.8966 2V5.10658L10.4861 1.24742ZM4.2069 9.72414C4.2069 9.30355 3.94724 8.9436 3.57949 8.79586L9.82759 3.32877L16.0757 8.79586C15.7079 8.9436 15.4483 9.30355 15.4483 9.72414V17H4.2069V9.72414Z" fill="#111111" fill-opacity="0.95"/>
<path fill-rule="evenodd" clip-rule="evenodd" d="M64.0048 1.39029C63.8101 1.13721 63.5063 0.99231 63.1871 1.00032C62.8679 1.00832 62.5717 1.16827 62.3899 1.43079L58.3245 7.30304H58.3207H58.2826H58.2446H58.2067H58.169H58.1314H58.0938H58.0564H58.0192H57.982H57.945H57.9081H57.8713H57.8346H57.7981H57.7617H57.7254H57.6892H57.6532H57.6173H57.5815H57.5458H57.5103H57.4749H57.4396H57.4045H57.3695H57.3346H57.2999H57.2653H57.2309H57.1965H57.1623H57.1283H57.0944H57.0606H57.027H56.9935H56.9601H56.9269H56.8939H56.8609H56.8281H56.7955H56.763H56.7307H56.6985H56.6664H56.6345H56.6028H56.5712H56.5397H56.5084H56.4773H56.4463H56.4154H56.3848H56.3542H56.3238H56.2936H56.2636H56.2336H56.2039H56.1743H56.1449H56.1156H56.0865H56.0575H56.0288H56.0001H55.9717H55.9434H55.9153H55.8873H55.8595H55.8319H55.8044H55.7771H55.75H55.7231H55.6963H55.6697H55.6432H55.617H55.5909H55.565H55.5393H55.5137H55.4883H55.4631H55.4381H55.4132H55.3886H55.3641H55.3398H55.3157H55.2917H55.268H55.2444H55.221H55.1978H55.1748H55.1519H55.1293H55.1068H55.0846H55.0625H55.0406H55.0189H54.9974H54.9761H54.955H54.9341H54.9133H54.8928H54.8725H54.8523H54.8324H54.8127H54.7931H54.7738H54.7546H54.7357H54.7169H54.6984H54.6801H54.6619H54.644H54.6263H54.6088H54.5915H54.5744H54.5575H54.5408H54.5243H54.5081H54.492H54.4762H54.4606H54.4451H54.4299H54.415H54.4002H54.3856H54.3713H54.3572H54.3433H54.3296H54.3162H54.3029H54.2899H54.2771H54.2645H54.2522H54.2401H54.2282H54.2165H54.205H54.1938H54.1828H54.1721H54.1615H54.1512H54.1411H54.1313H54.1217H54.1123H54.1032H54.0942H54.0856H54.0771H54.0689H54.0609H54.0532H54.0457H54.0385H54.0315H54.0247H54.0181H54.0119H54.0058H54C53.6759 7.30304 53.3719 7.46009 53.1844 7.7244C52.9969 7.98871 52.9491 8.32751 53.0561 8.63339L56.4501 18.3304C56.5905 18.7314 56.969 19 57.3939 19H70.4849C70.9437 19 71.3437 18.6877 71.455 18.2425L73.8792 8.54558C73.9539 8.24683 73.8868 7.93034 73.6973 7.68763C73.5078 7.44491 73.217 7.30304 72.9091 7.30304H72.8721H72.835H72.7978H72.7604H72.7229H72.6853H72.6476H72.6098H72.5719H72.5338H72.4956H72.4573H72.4189H72.3804H72.3418H72.3031H72.2642H72.2252H72.1862H72.147H72.1077H72.0683H72.0288H71.9892H71.9495H71.9097H71.8698H71.8298H71.7896H71.7494H71.7091H71.6687H71.6282H71.5875H71.5468H71.506H71.4651H71.4241H71.383H71.3418H71.3005H71.2591H71.2177H71.1761H71.1344H71.0927H71.0508H71.0089H70.9669H70.9248H70.8826H70.8404H70.798H70.7556H70.7131H70.6704H70.6278H70.585H70.5421H70.4992H70.4562H70.4131H70.37H70.3267H70.2834H70.24H70.1965H70.153H70.1094H70.0657H70.0219H69.9781H69.9342H69.8902H69.8462H69.8021H69.7579H69.7136H69.6693H69.625H69.5805H69.536H69.4914H69.4468H69.4021H69.3574H69.3126H69.2677H69.2227H69.1778H69.1327H69.0876H69.0424H68.9972H68.9519H68.9066H68.8612H68.8158H68.7703H68.7248H68.6792H68.6335H68.5879H68.553L64.0048 1.39029ZM68.0523 9.30304C68.0583 9.30309 68.0643 9.30309 68.0704 9.30304H68.0823H68.1285H68.1746H68.2207H68.2667H68.3127H68.3587H68.4046H68.4505H68.4963H68.5421H68.5879H68.6335H68.6792H68.7248H68.7703H68.8158H68.8612H68.9066H68.9519H68.9972H69.0424H69.0876H69.1327H69.1778H69.2227H69.2677H69.3126H69.3574H69.4021H69.4468H69.4914H69.536H69.5805H69.625H69.6693H69.7136H69.7579H69.8021H69.8462H69.8902H69.9342H69.9781H70.0219H70.0657H70.1094H70.153H70.1965H70.24H70.2834H70.3267H70.37H70.4131H70.4562H70.4992H70.5421H70.585H70.6278H70.6704H70.7131H70.7556H70.798H70.8404H70.8826H70.9248H70.9669H71.0089H71.0508H71.0927H71.1344H71.1761H71.2177H71.2591H71.3005H71.3418H71.383H71.4241H71.4651H71.506H71.5468H71.5875H71.6282H71.6283L69.7041 17H58.1034L55.4095 9.30304H55.4132H55.4381H55.4631H55.4883H55.5137H55.5393H55.565H55.5909H55.617H55.6432H55.6697H55.6963H55.7231H55.75H55.7771H55.8044H55.8319H55.8595H55.8873H55.9153H55.9434H55.9717H56.0001H56.0288H56.0575H56.0865H56.1156H56.1449H56.1743H56.2039H56.2336H56.2636H56.2936H56.3238H56.3542H56.3848H56.4154H56.4463H56.4773H56.5084H56.5397H56.5712H56.6028H56.6345H56.6664H56.6985H56.7307H56.763H56.7955H56.8281H56.8609H56.8939H56.9269H56.9601H56.9935H57.027H57.0606H57.0944H57.1283H57.1623H57.1965H57.2309H57.2653H57.2999H57.3346H57.3695H57.4045H57.4396H57.4749H57.5103H57.5458H57.5815H57.6173H57.6532H57.6892H57.7254H57.7617H57.7981H57.8346H57.8713H57.9081H57.945H57.982H58.0192H58.0564H58.0938H58.1314H58.169H58.2067H58.2446H58.2826H58.3207H58.3589H58.3972H58.4357H58.4742H58.5129H58.5516H58.5905H58.6295H58.6686H58.7078H58.7472H58.7866H58.8261H58.8349C58.8434 9.30315 58.8519 9.30315 58.8604 9.30304H58.8658H58.9055H58.9454H58.9853H59.0254H59.0655H59.1058H59.1461H59.1866H59.2271H59.2678H59.3085H59.3494H59.3903H59.4314H59.4725H59.5137H59.555H59.5965H59.638H59.6796H59.7212H59.763H59.8049H59.8468H59.8889H59.931H59.9732H60.0155H60.0579H60.1004H60.1429H60.1855H60.2283H60.271H60.3139H60.3569H60.3999H60.443H60.4862H60.5295H60.5728H60.6162H60.6597H60.7033H60.7469H60.7907H60.8344H60.8783H60.9222H60.9662H61.0103H61.0544H61.0986H61.1429H61.1872H61.2316H61.2761H61.3206H61.3652H61.4098H61.4546H61.4993H61.5442H61.5891H61.634H61.679H61.7241H61.7692H61.8144H61.8596H61.9049H61.9503H61.9957H62.0411H62.0866H62.1322H62.1778H62.2234H62.2691H62.3149H62.3607H62.4065H62.4524H62.4984H62.5443H62.5904H62.6364H62.6825H62.7287H62.7749H62.8211H62.8674H62.9137H62.9601H63.0065H63.0529H63.0993H63.1458H63.1924H63.2389H63.2855H63.3322H63.3788H63.4255H63.4722H63.519H63.5658H63.6126H63.6594H63.7063H63.7532H63.8001H63.847H63.894H63.941H63.988H64.035H64.0821H64.1291H64.1762H64.2233H64.2705H64.3176H64.3648H64.4119H64.4591H64.5063H64.5536H64.6008H64.648H64.6953H64.7426H64.7899H64.8371H64.8844H64.9317H64.9791H65.0264H65.0737H65.121H65.1684H65.2157H65.2631H65.3104H65.3578H65.4051H65.4524H65.4998H65.5471H65.5945H65.6418H65.6892H65.7365H65.7838H65.8312H65.8785H65.9258H65.9731H66.0204H66.0677H66.115H66.1622H66.2095H66.2567H66.3039H66.3512H66.3984H66.4456H66.4927H66.5399H66.587H66.6341H66.6812H66.7283H66.7754H66.8224H66.8695H66.9165H66.9634H67.0104H67.0573H67.1042H67.1511H67.198H67.2448H67.2916H67.3384H67.3851H67.4318H67.4785H67.5252H67.5718H67.6184H67.6649H67.7114H67.7579H67.8044H67.8508H67.8972H67.9435H67.9898H68.0361H68.0523ZM66.0298 7.30304L63.2547 3.6954L60.7571 7.30304H60.7907H60.8344H60.8783H60.9222H60.9662H61.0103H61.0544H61.0986H61.1429H61.1872H61.2316H61.2761H61.3206H61.3652H61.4098H61.4546H61.4993H61.5442H61.5891H61.634H61.679H61.7241H61.7692H61.8144H61.8596H61.9049H61.9503H61.9957H62.0411H62.0866H62.1322H62.1778H62.2234H62.2691H62.3149H62.3607H62.4065H62.4524H62.4984H62.5443H62.5904H62.6364H62.6825H62.7287H62.7749H62.8211H62.8674H62.9137H62.9601H63.0065H63.0529H63.0993H63.1458H63.1924H63.2389H63.2855H63.3322H63.3788H63.4255H63.4722H63.519H63.5658H63.6126H63.6594H63.7063H63.7532H63.8001H63.847H63.894H63.941H63.988H64.035H64.0821H64.1291H64.1762H64.2233H64.2705H64.3176H64.3648H64.4119H64.4591H64.5063H64.5536H64.6008H64.648H64.6953H64.7426H64.7899H64.8371H64.8844H64.9317H64.9791H65.0264H65.0737H65.121H65.1684H65.2157H65.2631H65.3104H65.3578H65.4051H65.4524H65.4998H65.5471H65.5945H65.6418H65.6892H65.7365H65.7838H65.8312H65.8785H65.9258H65.9731H66.0204H66.0298Z" fill="#333333"/>
<path fill-rule="evenodd" clip-rule="evenodd" d="M121.714 7.85713C121.714 11.0919 119.092 13.7143 115.857 13.7143C112.622 13.7143 110 11.0919 110 7.85713C110 4.62233 112.622 2 115.857 2C119.092 2 121.714 4.62233 121.714 7.85713ZM120.345 14.3074C119.073 15.1942 117.526 15.7143 115.857 15.7143C111.518 15.7143 108 12.1965 108 7.85713C108 3.51776 111.518 0 115.857 0C120.197 0 123.714 3.51776 123.714 7.85713C123.714 9.8076 123.004 11.5921 121.827 12.9657L127.18 17.8485C127.588 18.2206 127.617 18.8531 127.245 19.2612C126.873 19.6692 126.241 19.6983 125.833 19.3261L120.442 14.4097C120.407 14.3775 120.374 14.3433 120.345 14.3074Z" fill="#111111" fill-opacity="0.42"/>
</svg>
