<svg width="23" height="15" viewBox="0 0 23 15" fill="none" xmlns="http://www.w3.org/2000/svg">
<path fill-rule="evenodd" clip-rule="evenodd" d="M0.412415 0.936226C0.412415 0.604855 0.681044 0.336226 1.01241 0.336226H14.4546C14.786 0.336226 15.0546 0.604855 15.0546 0.936226V3.82124H18.4371C18.6223 3.82124 18.7971 3.90672 18.9107 4.05287L22.3957 8.5336C22.4777 8.63892 22.5221 8.76854 22.5221 8.90196V11.8891C22.5221 12.2205 22.2535 12.4891 21.9221 12.4891H19.6669C19.53 13.7345 18.4745 14.7033 17.1926 14.7033C16.0492 14.7033 15.0858 13.9323 14.794 12.8818C14.6974 12.9482 14.5805 12.987 14.4546 12.987H7.6113C7.28613 13.9834 6.34932 14.7033 5.24434 14.7033C4.13937 14.7033 3.20256 13.9834 2.87739 12.987H1.01241C0.681044 12.987 0.412415 12.7183 0.412415 12.387V0.936226ZM19.5044 11.2891H21.3221V9.10783L18.1437 5.02124H15.0546V10.9384C15.4892 10.2115 16.2841 9.72473 17.1926 9.72473C18.2406 9.72473 19.1373 10.3723 19.5044 11.2891ZM13.8546 4.40089C13.8544 4.40764 13.8543 4.41443 13.8543 4.42124C13.8543 4.42805 13.8544 4.43483 13.8546 4.44158V11.787H7.69715C7.49464 10.6156 6.47353 9.72473 5.24434 9.72473C4.01516 9.72473 2.99405 10.6156 2.79154 11.787H1.61241V1.53623H13.8546V4.40089ZM6.53364 12.214C6.53364 12.9261 5.9564 13.5033 5.24434 13.5033C4.53229 13.5033 3.95505 12.9261 3.95505 12.214C3.95505 11.502 4.53229 10.9247 5.24434 10.9247C5.9564 10.9247 6.53364 11.502 6.53364 12.214ZM18.4819 12.214C18.4819 12.9261 17.9047 13.5033 17.1926 13.5033C16.4806 13.5033 15.9034 12.9261 15.9034 12.214C15.9034 11.502 16.4806 10.9247 17.1926 10.9247C17.9047 10.9247 18.4819 11.502 18.4819 12.214Z" fill="#111111" fill-opacity="0.7"/>
</svg>
