<svg width="20" height="20" viewBox="0 0 20 20" fill="none" xmlns="http://www.w3.org/2000/svg">
<path fill-rule="evenodd" clip-rule="evenodd" d="M13.7143 7.85713C13.7143 11.0919 11.0919 13.7143 7.85713 13.7143C4.62233 13.7143 2 11.0919 2 7.85713C2 4.62233 4.62233 2 7.85713 2C11.0919 2 13.7143 4.62233 13.7143 7.85713ZM12.3448 14.3074C11.0725 15.1942 9.52556 15.7143 7.85713 15.7143C3.51776 15.7143 0 12.1965 0 7.85713C0 3.51776 3.51776 0 7.85713 0C12.1965 0 15.7143 3.51776 15.7143 7.85713C15.7143 9.8076 15.0036 11.5921 13.827 12.9657L19.1803 17.8485C19.5884 18.2206 19.6174 18.8531 19.2453 19.2612C18.8731 19.6692 18.2406 19.6983 17.8325 19.3261L12.4423 14.4097C12.407 14.3775 12.3744 14.3433 12.3448 14.3074Z" fill="#111111" fill-opacity="0.42"/>
</svg>
