<svg width="22" height="18" viewBox="0 0 22 18" fill="none" xmlns="http://www.w3.org/2000/svg">
<path d="M6.90498 13.6052C5.05336 14.6696 3.87332 15.1397 1 15.2923C1.84357 15.8226 2.3723 16.6962 6.90498 16.9795C11.4377 17.2628 15.3407 14.5572 16.606 12.3398C17.8714 10.1225 18.8555 6.71606 18.7149 5.16951C19.9556 3.94524 20.3016 3.20269 20.4021 1.79524C19.1961 2.45179 18.536 2.66936 17.4496 2.21703C16.4654 1.79524 14.4971 0.216515 12.3882 1.4819C10.2793 2.74729 10.701 3.90416 10.2793 6.01308C10.2793 6.01308 9.0139 6.01308 6.06141 4.74773C3.10892 3.48237 2.26535 1.79524 2.26535 1.79524C1.34224 3.97401 1.4454 5.17866 3.5307 7.27844L1.42178 6.85665C1.86455 8.84443 2.64409 9.65338 4.79606 10.6527L3.10892 11.0745C4.15116 12.7752 5.00175 13.3006 6.90498 13.6052Z" stroke="white" stroke-opacity="0.7" stroke-width="2" stroke-linecap="round" stroke-linejoin="round"/>
</svg>
